<svg width="24" height="25" viewBox="0 0 24 25" fill="none" xmlns="http://www.w3.org/2000/svg">
<path d="M11 17.6315V7.78154C10.3167 7.38154 9.59167 7.08154 8.825 6.88154C8.05833 6.68154 7.28333 6.58154 6.5 6.58154C5.9 6.58154 5.30417 6.63988 4.7125 6.75654C4.12083 6.87321 3.55 7.04821 3 7.28154V17.1815C3.58333 16.9815 4.1625 16.8315 4.7375 16.7315C5.3125 16.6315 5.9 16.5815 6.5 16.5815C7.28333 16.5815 8.04583 16.669 8.7875 16.844C9.52917 17.019 10.2667 17.2815 11 17.6315ZM12 20.5815C11.2 19.9482 10.3333 19.4565 9.4 19.1065C8.46667 18.7565 7.5 18.5815 6.5 18.5815C5.8 18.5815 5.1125 18.6732 4.4375 18.8565C3.7625 19.0399 3.11667 19.2982 2.5 19.6315C2.15 19.8149 1.8125 19.8065 1.4875 19.6065C1.1625 19.4065 1 19.1149 1 18.7315V6.68154C1 6.49821 1.04583 6.32321 1.1375 6.15654C1.22917 5.98988 1.36667 5.86488 1.55 5.78154C2.31667 5.38154 3.11667 5.08154 3.95 4.88154C4.78333 4.68154 5.63333 4.58154 6.5 4.58154C7.73333 4.58154 8.78333 4.72321 9.65 5.00654C10.5167 5.28988 11.45 5.72321 12.45 6.30654C12.6333 6.40654 12.7708 6.52321 12.8625 6.65654C12.9542 6.78988 13 6.96488 13 7.18154V17.6315C13.7333 17.2815 14.4708 17.019 15.2125 16.844C15.9542 16.669 16.7167 16.5815 17.5 16.5815C18.1 16.5815 18.6875 16.6315 19.2625 16.7315C19.8375 16.8315 20.4167 16.9815 21 17.1815V5.15654C21.25 5.23988 21.4958 5.33154 21.7375 5.43154C21.9792 5.53154 22.2167 5.64821 22.45 5.78154C22.6333 5.86488 22.7708 5.98988 22.8625 6.15654C22.9542 6.32321 23 6.49821 23 6.68154V18.7315C23 19.1149 22.8375 19.4065 22.5125 19.6065C22.1875 19.8065 21.85 19.8149 21.5 19.6315C20.8833 19.2982 20.2375 19.0399 19.5625 18.8565C18.8875 18.6732 18.2 18.5815 17.5 18.5815C16.5 18.5815 15.5333 18.7565 14.6 19.1065C13.6667 19.4565 12.8 19.9482 12 20.5815ZM15.5 14.5815V3.58154L18.5 2.58154V13.5815L15.5 14.5815Z" fill="#FF6130"/>
</svg>
