
<svg width="28" height="29" viewBox="0 0 28 29" fill="none" xmlns="http://www.w3.org/2000/svg">
<path d="M28 14.5815C28 22.3135 21.732 28.5815 14 28.5815C6.268 28.5815 0 22.3135 0 14.5815C0 6.84954 6.268 0.581543 14 0.581543C21.732 0.581543 28 6.84954 28 14.5815Z" fill="#A2B6C9"/>
<path d="M20.7074 11.2886C20.8896 11.1 20.9904 10.8474 20.9881 10.5852C20.9858 10.323 20.8806 10.0722 20.6952 9.88677C20.5098 9.70136 20.259 9.59619 19.9968 9.59391C19.7346 9.59163 19.482 9.69243 19.2934 9.87458L12.5004 16.6676L9.20741 13.3746C9.0188 13.1924 8.7662 13.0916 8.50401 13.0939C8.24181 13.0962 7.991 13.2014 7.80559 13.3868C7.62018 13.5722 7.51501 13.823 7.51273 14.0852C7.51045 14.3474 7.61125 14.6 7.79341 14.7886L11.7934 18.7886C11.9809 18.9761 12.2352 19.0814 12.5004 19.0814C12.7656 19.0814 13.0199 18.9761 13.2074 18.7886L20.7074 11.2886Z" fill="url(#paint0_linear_2570_1927)"/>
<defs>
<linearGradient id="paint0_linear_2570_1927" x1="10.0314" y1="10.5506" x2="12.1624" y2="21.2416" gradientUnits="userSpaceOnUse">
<stop stop-color="white"/>
<stop offset="1" stop-color="#E3FFD9"/>
</linearGradient>
</defs>
</svg>
