<svg width="20" height="21" viewBox="0 0 20 21" fill="none" xmlns="http://www.w3.org/2000/svg">
<path d="M11 9.76357V6.16357C11 5.88024 10.9042 5.64274 10.7125 5.45107C10.5208 5.25941 10.2833 5.16357 10 5.16357C9.71667 5.16357 9.47917 5.25941 9.2875 5.45107C9.09583 5.64274 9 5.88024 9 6.16357V10.1386C9 10.2719 9.025 10.4011 9.075 10.5261C9.125 10.6511 9.2 10.7636 9.3 10.8636L12.6 14.1636C12.7833 14.3469 13.0167 14.4386 13.3 14.4386C13.5833 14.4386 13.8167 14.3469 14 14.1636C14.1833 13.9802 14.275 13.7469 14.275 13.4636C14.275 13.1802 14.1833 12.9469 14 12.7636L11 9.76357ZM10 20.1636C8.61667 20.1636 7.31667 19.9011 6.1 19.3761C4.88333 18.8511 3.825 18.1386 2.925 17.2386C2.025 16.3386 1.3125 15.2802 0.7875 14.0636C0.2625 12.8469 0 11.5469 0 10.1636C0 8.78024 0.2625 7.48024 0.7875 6.26357C1.3125 5.04691 2.025 3.98857 2.925 3.08857C3.825 2.18857 4.88333 1.47607 6.1 0.951074C7.31667 0.426074 8.61667 0.163574 10 0.163574C11.3833 0.163574 12.6833 0.426074 13.9 0.951074C15.1167 1.47607 16.175 2.18857 17.075 3.08857C17.975 3.98857 18.6875 5.04691 19.2125 6.26357C19.7375 7.48024 20 8.78024 20 10.1636C20 11.5469 19.7375 12.8469 19.2125 14.0636C18.6875 15.2802 17.975 16.3386 17.075 17.2386C16.175 18.1386 15.1167 18.8511 13.9 19.3761C12.6833 19.9011 11.3833 20.1636 10 20.1636ZM10 18.1636C12.2167 18.1636 14.1042 17.3844 15.6625 15.8261C17.2208 14.2677 18 12.3802 18 10.1636C18 7.94691 17.2208 6.05941 15.6625 4.50107C14.1042 2.94274 12.2167 2.16357 10 2.16357C7.78333 2.16357 5.89583 2.94274 4.3375 4.50107C2.77917 6.05941 2 7.94691 2 10.1636C2 12.3802 2.77917 14.2677 4.3375 15.8261C5.89583 17.3844 7.78333 18.1636 10 18.1636Z" fill="#0CB43F"/>
</svg>
