<svg width="20" height="21" viewBox="0 0 20 21" fill="none" xmlns="http://www.w3.org/2000/svg">
<path d="M10 15.418C10.2833 15.418 10.5208 15.3221 10.7125 15.1305C10.9042 14.9388 11 14.7013 11 14.418V10.418C11 10.1346 10.9042 9.89714 10.7125 9.70547C10.5208 9.5138 10.2833 9.41797 10 9.41797C9.71667 9.41797 9.47917 9.5138 9.2875 9.70547C9.09583 9.89714 9 10.1346 9 10.418V14.418C9 14.7013 9.09583 14.9388 9.2875 15.1305C9.47917 15.3221 9.71667 15.418 10 15.418ZM10 7.41797C10.2833 7.41797 10.5208 7.32214 10.7125 7.13047C10.9042 6.9388 11 6.7013 11 6.41797C11 6.13464 10.9042 5.89714 10.7125 5.70547C10.5208 5.5138 10.2833 5.41797 10 5.41797C9.71667 5.41797 9.47917 5.5138 9.2875 5.70547C9.09583 5.89714 9 6.13464 9 6.41797C9 6.7013 9.09583 6.9388 9.2875 7.13047C9.47917 7.32214 9.71667 7.41797 10 7.41797ZM10 20.418C8.61667 20.418 7.31667 20.1555 6.1 19.6305C4.88333 19.1055 3.825 18.393 2.925 17.493C2.025 16.593 1.3125 15.5346 0.7875 14.318C0.2625 13.1013 0 11.8013 0 10.418C0 9.03464 0.2625 7.73464 0.7875 6.51797C1.3125 5.3013 2.025 4.24297 2.925 3.34297C3.825 2.44297 4.88333 1.73047 6.1 1.20547C7.31667 0.680469 8.61667 0.417969 10 0.417969C11.3833 0.417969 12.6833 0.680469 13.9 1.20547C15.1167 1.73047 16.175 2.44297 17.075 3.34297C17.975 4.24297 18.6875 5.3013 19.2125 6.51797C19.7375 7.73464 20 9.03464 20 10.418C20 11.8013 19.7375 13.1013 19.2125 14.318C18.6875 15.5346 17.975 16.593 17.075 17.493C16.175 18.393 15.1167 19.1055 13.9 19.6305C12.6833 20.1555 11.3833 20.418 10 20.418ZM10 18.418C12.2333 18.418 14.125 17.643 15.675 16.093C17.225 14.543 18 12.6513 18 10.418C18 8.18464 17.225 6.29297 15.675 4.74297C14.125 3.19297 12.2333 2.41797 10 2.41797C7.76667 2.41797 5.875 3.19297 4.325 4.74297C2.775 6.29297 2 8.18464 2 10.418C2 12.6513 2.775 14.543 4.325 16.093C5.875 17.643 7.76667 18.418 10 18.418Z" fill="#2870ED"/>
</svg>
